<svg width="100%" height="100%" version="1.1" xmlns="http://www.w3.org/2000/svg">
<path d="M37.203,47.844 C41.578,37.703 42.063,36.563 43.031,34.516 C45.563,33.797 46.438,33.500 46.438,32.266 C46.438,31.641 45.953,31.016 45.359,30.813 L36.172,26.563 C36.266,27.281 36.375,28.313 36.172,29.641 C35.859,32.109 33.719,39.313 30.047,47.844 L15.016,47.844 C10.203,47.844 5.094,47.844 0.000,47.422 L2.000,50.906 C6.391,50.000 11.094,50.000 13.703,50.000 L28.922,50.000 C25.953,56.391 19.938,67.250 19.531,67.750 C18.000,70.047 17.891,70.344 17.891,71.047 C17.891,72.813 19.625,74.000 21.250,74.000 C21.766,74.000 24.313,74.000 24.828,74.000 C26.156,74.000 31.469,74.844 41.797,78.297 C29.844,88.828 14.656,93.234 3.703,95.281 L3.703,96.000 C16.453,96.000 32.281,94.078 47.422,80.750 C56.688,84.781 58.469,86.094 69.625,93.266 C74.906,96.703 74.906,96.703 76.297,96.703 C78.797,96.703 80.094,94.469 80.094,92.516 C80.094,90.469 79.000,88.734 76.391,87.000 C70.094,82.906 62.000,79.531 51.500,76.563 C56.906,70.875 63.000,62.188 66.797,50.000 L90.594,50.000 C91.000,50.000 92.094,50.000 92.094,49.094 C92.094,48.313 91.391,47.906 91.094,47.609 L84.094,42.391 C82.797,41.406 82.594,41.406 82.203,41.406 C81.703,41.406 81.500,41.500 80.594,42.609 L76.297,47.844 L71.000,47.844 C70.906,47.344 70.094,46.844 69.500,46.438 L61.703,41.297 C61.203,44.625 60.891,45.625 60.391,47.844 L37.203,47.844 M59.703,50.000 C56.734,59.875 50.594,68.844 44.953,74.922 C35.344,72.797 28.453,71.844 25.547,71.844 C27.484,68.750 30.141,62.969 36.172,50.000 L59.703,50.000 M48.797,19.000 C48.797,18.906 48.797,12.406 48.797,10.797 C51.906,9.094 52.203,8.703 52.203,7.797 C52.203,6.891 51.438,6.500 50.859,6.391 L39.656,3.500 C41.797,9.000 41.797,12.297 41.797,19.000 L15.531,19.000 C15.422,17.703 15.328,17.297 14.609,13.906 L13.797,13.906 C13.797,19.359 9.297,24.500 5.094,27.531 C3.203,28.844 1.500,30.063 1.500,32.781 C1.500,35.172 3.094,37.141 5.594,37.141 C10.906,37.141 15.844,29.672 15.641,21.156 L73.391,21.156 C71.391,27.188 70.094,29.781 68.594,32.688 L68.891,33.000 C70.297,32.375 72.391,31.438 75.297,29.563 C79.094,27.078 79.500,26.875 81.094,26.141 C83.094,26.344 83.891,26.453 84.797,26.453 C85.594,26.453 87.500,26.453 87.500,24.578 C87.500,23.891 87.094,23.094 87.000,23.000 L80.203,15.594 C79.703,15.000 79.297,14.703 78.703,14.703 C78.406,14.703 77.500,15.203 77.297,15.297 L72.703,19.000 L48.797,19.000 Z" fill="black" />
</svg>