<?xml version="1.0" standalone="no"?>
<!DOCTYPE svg PUBLIC "-//W3C//DTD SVG 1.1//EN"
"http://www.w3.org/Graphics/SVG/1.1/DTD/svg11.dtd">
<svg width="100%" height="100%" version="1.1" xmlns="http://www.w3.org/2000/svg">
<path d="M48.141,36.672 C51.563,36.000 53.766,36.000 58.203,36.000 L58.203,50.000 C52.406,50.000 49.719,50.000 42.734,49.734 L44.938,52.938 C48.906,52.156 53.328,52.156 58.203,52.156 L58.203,67.000 C54.703,67.000 48.688,67.000 45.156,66.797 L47.250,70.531 C51.656,69.156 56.609,69.156 58.203,69.156 L58.203,82.547 C58.203,85.406 58.000,86.000 56.000,86.000 C52.313,86.000 47.953,85.609 44.266,85.219 L44.172,86.016 C53.625,89.969 54.172,92.828 54.609,95.703 C64.203,93.375 64.203,88.328 64.203,83.750 L64.203,83.266 C64.203,81.328 64.203,71.703 64.203,69.156 L68.828,69.156 C70.938,69.156 71.453,69.281 72.547,69.875 C74.156,70.844 74.563,71.078 75.672,71.078 C75.953,71.078 78.906,71.078 78.906,67.531 C78.906,67.359 78.906,66.922 78.797,66.281 C78.500,61.719 78.203,56.953 78.203,52.156 L90.422,52.156 C91.406,52.156 92.000,51.953 92.000,51.547 C92.000,50.938 91.297,50.141 91.000,49.844 L86.000,45.219 C85.906,45.109 84.813,44.109 84.109,44.109 C83.406,44.109 82.703,45.203 82.609,45.406 L79.703,50.000 L78.203,50.000 C78.203,44.891 78.203,41.281 78.203,38.000 C81.203,36.188 81.203,35.734 81.203,35.094 C81.203,34.359 80.391,33.641 80.219,33.422 L76.906,30.406 C76.734,30.203 75.922,29.469 75.391,29.469 C74.906,29.469 74.813,29.688 73.766,31.000 L71.453,33.844 L61.297,33.844 C64.328,31.000 69.547,25.125 75.047,19.125 C77.422,18.594 79.703,17.969 79.703,16.391 C79.703,16.000 79.531,15.328 78.906,14.766 L75.188,11.406 C74.938,11.203 73.953,10.344 73.516,10.344 C73.109,10.344 72.297,11.047 71.781,11.547 L69.531,13.844 L58.844,13.844 C59.234,13.141 59.234,13.141 59.938,11.844 C60.922,11.641 63.203,11.141 63.203,9.750 C63.203,9.047 62.516,8.547 62.109,8.344 L54.203,4.344 C53.547,13.703 45.375,27.797 40.734,33.141 L41.297,33.844 C46.703,30.109 51.672,25.516 57.500,16.000 L68.891,16.000 C65.625,23.766 60.656,32.172 59.500,33.844 C53.656,33.844 50.563,33.844 45.922,33.375 L48.141,36.672 M72.203,36.000 L72.203,50.000 L64.203,50.000 C64.203,47.875 64.203,38.359 64.203,36.438 L64.203,36.000 L72.203,36.000 M72.203,52.156 L72.203,67.000 L64.203,67.000 C64.203,61.891 64.203,61.297 64.203,55.500 L64.203,52.156 L72.203,52.156 M14.703,48.844 L5.609,43.875 C6.078,47.484 6.203,48.688 6.203,56.500 C6.203,66.188 6.203,75.172 6.203,84.547 C6.203,85.609 5.703,90.688 5.703,91.859 C5.703,94.094 6.938,94.297 7.516,94.297 C8.313,94.297 9.813,93.891 10.969,92.875 C12.203,91.766 12.203,90.453 12.203,89.641 C12.203,89.547 12.203,72.844 12.203,72.156 L32.203,72.156 L32.203,82.203 C32.203,85.516 31.688,86.000 29.406,86.000 C27.547,86.000 25.313,85.813 21.797,85.422 L21.797,86.000 C23.359,86.813 28.844,89.641 29.922,95.000 C31.500,94.703 33.922,94.297 36.344,91.563 C38.203,89.438 38.203,87.625 38.203,85.125 C38.203,83.172 38.203,54.500 38.203,52.938 C39.141,52.516 41.516,51.422 41.516,50.422 C41.516,49.906 40.828,49.000 40.250,48.391 L37.125,45.344 C36.828,45.141 36.047,44.328 35.656,44.328 C35.188,44.328 34.172,45.563 33.797,46.141 L31.578,48.844 L14.703,48.844 M32.203,51.000 L32.203,58.844 L12.203,58.844 L12.203,51.000 L32.203,51.000 M32.203,61.000 L32.203,70.000 L12.203,70.000 L12.203,61.000 L32.203,61.000 M26.203,38.000 L26.203,29.000 L38.203,29.000 C38.531,29.000 39.750,29.000 39.750,28.016 C39.750,27.281 39.016,26.547 38.828,26.453 L35.141,23.422 C34.953,23.203 33.750,22.266 33.297,22.266 C32.797,22.266 32.109,23.359 31.813,23.797 L30.031,26.844 L26.203,26.844 L26.203,18.156 L41.406,18.156 C42.172,18.156 43.063,18.063 43.063,17.172 C43.063,16.406 42.156,15.734 42.063,15.641 L37.563,12.688 C37.156,12.313 36.156,11.641 35.656,11.641 C35.297,11.641 34.938,12.031 34.297,12.922 L32.297,16.000 L26.203,16.000 L26.203,12.047 C27.547,11.047 29.000,10.047 29.000,9.141 C29.000,8.734 28.609,7.938 27.641,7.641 L17.703,4.641 C19.844,8.234 20.203,11.422 20.203,16.000 L16.859,16.000 C13.641,16.000 7.891,16.000 1.797,15.484 L3.797,19.078 C7.813,18.156 12.203,18.156 14.953,18.156 L20.203,18.156 C20.203,20.219 20.203,22.844 20.203,26.844 C16.625,26.844 10.328,26.844 4.609,26.266 L6.297,29.938 C9.969,29.000 13.641,29.000 18.406,29.000 L20.203,29.000 C20.203,30.578 20.203,36.016 20.203,38.000 L14.656,38.000 C12.797,38.000 6.359,38.000 0.000,37.328 L2.000,41.063 C6.125,40.156 10.609,40.156 13.125,40.156 L44.516,40.156 C45.125,40.156 46.031,40.063 46.031,39.172 C46.031,38.656 45.500,38.219 44.969,37.875 L39.859,34.781 C38.797,34.188 38.484,33.844 37.844,33.844 C37.391,33.844 36.750,34.609 36.484,34.953 L33.938,38.000 L26.203,38.000 Z" fill="black" />
</svg>